<svg width="407" height="231" viewBox="0 0 407 231" fill="none" xmlns="http://www.w3.org/2000/svg">
<path d="M75.5 64.25C75.6667 65 76.0833 65.5833 76.75 66L76.9375 68.0625C76.9792 68.3958 77.0208 68.75 77.0625 69.125C77.1042 69.4583 77.1667 69.7917 77.25 70.125V71.1875C77.25 71.5625 77.375 71.875 77.625 72.125C77.375 75.125 76.9792 77.5208 76.4375 79.3125C76.1458 80.2292 75.875 81.2083 75.625 82.25C75.4167 83.2917 75.2083 84.375 75 85.5C74.9583 85.7917 74.8542 86.1875 74.6875 86.6875C74.5625 87.0625 74.5 87.4583 74.5 87.875C74.4167 88.2917 74.3958 88.5833 74.4375 88.75C74.4792 88.9167 74.4583 89.2083 74.375 89.625C74.1667 90.2083 73.9167 90.75 73.625 91.25C73.4583 91.5417 73.2917 91.8542 73.125 92.1875C72.9583 92.4792 72.7917 92.7917 72.625 93.125C71.2917 95.5417 69.8125 97.8333 68.1875 100C66.5625 102.167 64.5417 103.833 62.125 105C61.125 105.458 60.3542 105.854 59.8125 106.188C59.2292 106.521 58.4583 106.792 57.5 107C56.9167 107.333 56.2292 107.688 55.4375 108.062C54.6458 108.438 53.875 108.708 53.125 108.875C52.8333 109.042 52.5 109.125 52.125 109.125C51.875 109.125 51.5417 109.167 51.125 109.25L50.0625 109.688C49.8958 109.729 49.75 109.792 49.625 109.875C49.5 109.917 49.375 109.958 49.25 110C48.625 110.167 48.125 110.25 47.75 110.25C47.1667 110.167 46.75 109.812 46.5 109.188C46.25 108.562 46.125 107.917 46.125 107.25C45.75 106.875 45.375 106.583 45 106.375C44.625 106.167 44.3333 105.708 44.125 105C43.875 104.083 43.7083 103.583 43.625 103.5C43.5 103.375 43.4167 103.25 43.375 103.125C42.9583 101.958 42.8125 100.646 42.9375 99.1875C43.0625 97.7292 43.375 96.5417 43.875 95.625C44.0833 95.1667 44.3333 94.8542 44.625 94.6875C45 94.4792 45.2083 94.1667 45.25 93.75C45.875 93.375 46.4583 92.9375 47 92.4375C47.5417 91.9375 48.125 91.5 48.75 91.125C49.5 89.7917 50.4583 88.7083 51.625 87.875C52.6667 87.1667 53.7083 86.375 54.75 85.5C55.125 85.2083 55.3958 84.9167 55.5625 84.625C55.8125 84.25 56.125 83.9167 56.5 83.625C56.7917 83.3333 57.0833 83.1042 57.375 82.9375C57.7917 82.6875 58.0833 82.5 58.25 82.375L59.25 81.375C59.5417 81.2083 59.875 81.125 60.25 81.125C60.625 81.125 60.9583 81.0417 61.25 80.875C62.4167 80.7083 63 80.7708 63 81.0625V82C62.25 82.4583 61.1667 82.875 59.75 83.25C59.5417 83.9583 59.1875 84.4583 58.6875 84.75C58.2708 85 57.7917 85.4583 57.25 86.125C57.0833 86.3333 56.9167 86.5417 56.75 86.75C56.625 86.9167 56.5208 87.1042 56.4375 87.3125C56.2708 87.6458 55.875 87.9167 55.25 88.125C54.7917 89.2083 54.2708 90.0625 53.6875 90.6875C53.0208 91.3958 52.4167 92.125 51.875 92.875C51.875 93.7917 51.6875 94.5625 51.3125 95.1875C50.9375 95.8125 50.5417 96.4583 50.125 97.125C49.9583 97.4583 49.7917 97.7917 49.625 98.125C49.4583 98.4583 49.375 98.7083 49.375 98.875C49.4167 98.9583 49.4583 99.0625 49.5 99.1875C49.5833 99.2708 49.6458 99.3958 49.6875 99.5625C49.8125 99.8958 49.9583 100.167 50.125 100.375C50.25 100.542 50.4375 100.75 50.6875 101C50.9375 101.25 51.0833 101.458 51.125 101.625C53.125 100.375 55.1042 99.125 57.0625 97.875C59.0208 96.625 60.7083 95.125 62.125 93.375C62.5417 92.625 62.9375 91.8958 63.3125 91.1875C63.6875 90.4792 64.0833 89.7083 64.5 88.875C64.6667 88.0417 64.9167 87.25 65.25 86.5C65.5833 85.75 65.9583 85 66.375 84.25C66.7917 83.4167 67.1667 82.5833 67.5 81.75C67.8333 80.9167 68.0417 80.0417 68.125 79.125C68.1667 78.7917 68.1875 78.4583 68.1875 78.125C68.2292 77.75 68.2292 77.3542 68.1875 76.9375C68.1458 76.1875 68.25 75.5833 68.5 75.125C68.3333 74.6667 68.3333 74.1042 68.5 73.4375C68.6667 72.8542 68.7083 72.1667 68.625 71.375C68.0417 70.125 67.4583 69.3958 66.875 69.1875C66.2917 68.9792 65.6667 68.7917 65 68.625C64.3333 69.0417 63.625 69.5 62.875 70C62.125 70.5 61.4167 71.0417 60.75 71.625C60.5 71.875 60.25 72.125 60 72.375C59.75 72.625 59.4792 72.875 59.1875 73.125C58.6042 73.625 58.1667 74.2083 57.875 74.875C56.7917 76.0417 55.9167 77.0625 55.25 77.9375C54.5833 78.8125 53.9167 79.7083 53.25 80.625C51.9583 81.4583 50.6667 82.4583 49.375 83.625C48.0833 84.7917 46.7917 85.7917 45.5 86.625C44.4167 87.4583 43.3542 88.3125 42.3125 89.1875C41.2708 90.0625 40.2917 90.9583 39.375 91.875C38.9583 92.3333 38.5208 92.7708 38.0625 93.1875C37.6458 93.6042 37.2083 94.0208 36.75 94.4375C35.7917 95.2708 34.9583 96.125 34.25 97C32.9583 98.7917 31.5 100.667 29.875 102.625C29.4167 103.083 29.0417 103.542 28.75 104C28.4583 104.5 28.0833 105 27.625 105.5C27.2083 105.917 26.8125 106.375 26.4375 106.875C26.2708 107.125 26.0833 107.375 25.875 107.625C25.7083 107.833 25.5417 108.042 25.375 108.25C25.2083 108.542 25 108.979 24.75 109.562C24.5 110.146 24.2917 110.583 24.125 110.875C23.2917 111.875 22.4792 112.896 21.6875 113.938C20.8958 114.979 20.2083 116.167 19.625 117.5C18.6667 118.75 17.8958 120.062 17.3125 121.438C17.0208 122.104 16.7292 122.75 16.4375 123.375C16.1458 124 15.8333 124.625 15.5 125.25C15.3333 126.375 15.0208 127.417 14.5625 128.375C14.1042 129.333 13.7917 130.375 13.625 131.5C13.5833 131.792 13.5208 132.083 13.4375 132.375C13.3542 132.625 13.2708 132.896 13.1875 133.188C13.1042 133.479 13.0208 133.771 12.9375 134.062C12.8542 134.354 12.7917 134.667 12.75 135C12.5833 135.5 12.5 136.104 12.5 136.812C12.5 137.479 12.4167 138.042 12.25 138.5C11.75 139.542 11.5 140.312 11.5 140.812C11.5 141.271 11.2917 141.625 10.875 141.875C11.125 142.542 11.3542 143.125 11.5625 143.625C11.7708 144.125 12.0833 144.625 12.5 145.125C12.7083 145.458 12.9583 145.75 13.25 146C13.5417 146.25 13.7917 146.542 14 146.875C14.3333 147.708 14.6042 148.208 14.8125 148.375C15.0208 148.542 15.2917 148.75 15.625 149C15.875 149.167 16.1875 149.375 16.5625 149.625C16.9375 149.875 17.2917 150.042 17.625 150.125C18.0833 150.292 18.5208 150.354 18.9375 150.312C19.2292 150.271 19.6667 150.292 20.25 150.375C20.7917 150.375 21.1667 150.396 21.375 150.438C21.5833 150.479 21.9583 150.458 22.5 150.375C23.1667 150.208 23.9583 150.021 24.875 149.812C25.7917 149.604 26.625 149.417 27.375 149.25C28.5417 148.917 29.6875 148.583 30.8125 148.25C31.9375 147.917 33 147.542 34 147.125C35.0833 146.667 35.9583 146.083 36.625 145.375C37.2917 144.667 38.0417 144.083 38.875 143.625C40.2083 142.625 41.1458 141.812 41.6875 141.188C42.2708 140.562 42.875 140.042 43.5 139.625C44.0833 138.875 44.4167 138.5 44.5 138.5C44.5833 138.5 44.6667 138.458 44.75 138.375C45.0417 138.042 45.3125 137.729 45.5625 137.438C45.8542 137.146 46.1458 136.854 46.4375 136.562C46.7292 136.271 47 135.979 47.25 135.688C47.5417 135.396 47.8333 135.083 48.125 134.75C49.125 134.292 49.875 133.75 50.375 133.125C51.0833 132.875 51.6458 132.542 52.0625 132.125C52.2708 131.917 52.5 131.708 52.75 131.5C53 131.292 53.25 131.083 53.5 130.875C54.125 130.417 54.5833 130.042 54.875 129.75C55.2083 129.417 55.5208 129.083 55.8125 128.75C56.1042 128.417 56.4167 128.042 56.75 127.625C56.9583 127.417 57.2083 127.229 57.5 127.062C57.875 126.812 58.2083 126.5 58.5 126.125C58.625 125.958 58.7917 125.625 59 125.125C59.1667 124.708 59.4583 124.5 59.875 124.5C60.375 124.417 60.9167 124.646 61.5 125.188C62.0833 125.729 62.375 126.292 62.375 126.875C61.5833 128.125 61.1667 128.833 61.125 129C60.5 129.917 59.875 130.708 59.25 131.375C58.9167 131.75 58.5833 132.146 58.25 132.562C57.9167 132.979 57.5833 133.417 57.25 133.875C56.5833 134.625 55.9167 135.396 55.25 136.188C54.5833 136.979 53.9583 137.833 53.375 138.75C52.875 139.583 52.2292 140.396 51.4375 141.188C51.1042 141.521 50.75 141.896 50.375 142.312C50 142.688 49.625 143.083 49.25 143.5C48.2917 144.542 47.2292 145.625 46.0625 146.75C45.0625 147.667 44.0833 148.875 43.125 150.375C42.5833 150.917 42.1667 151.312 41.875 151.562C41.5833 151.812 41.1667 152.208 40.625 152.75C40.1667 153 39.7708 153.271 39.4375 153.562C39.1042 153.854 38.7083 154.125 38.25 154.375C37.4167 154.667 36.5625 155.021 35.6875 155.438C34.8542 155.812 34.0208 156.229 33.1875 156.688C31.3958 157.688 29.5 158.458 27.5 159C27.0417 159.125 26.5625 159.25 26.0625 159.375C25.6042 159.542 25.1458 159.708 24.6875 159.875C23.7708 160.167 22.7083 160.292 21.5 160.25C21.25 160.167 21.0417 160.125 20.875 160.125C20.7083 160.125 20.4583 160.083 20.125 160C19.7083 159.958 19.1875 159.792 18.5625 159.5C17.9375 159.208 17.3333 159.042 16.75 159C16.3333 159 15.9583 159.062 15.625 159.188C15.3333 159.312 14.9583 159.375 14.5 159.375C12.6667 158.208 11.1875 157.229 10.0625 156.438C8.9375 155.646 7.91667 154.708 7 153.625C6.20833 152.417 5.75 151.729 5.625 151.562C5.5 151.396 5.35417 151.229 5.1875 151.062C5.0625 150.896 4.91667 150.708 4.75 150.5C4.08333 149.542 3.41667 148.417 2.75 147.125C2.75 146.833 2.64583 146.542 2.4375 146.25C2.3125 146.083 2.125 145.792 1.875 145.375C1.45833 144 1.25 142.521 1.25 140.938C1.25 140.146 1.25 139.375 1.25 138.625C1.29167 137.875 1.33333 137.125 1.375 136.375C1.41667 135.958 1.41667 135.562 1.375 135.188C1.29167 134.688 1.25 134.292 1.25 134C1.25 133.333 1.375 132.625 1.625 131.875C1.75 131.5 1.85417 131.146 1.9375 130.812C2.0625 130.438 2.16667 130.083 2.25 129.75C2.75 127.917 3.3125 126.188 3.9375 124.562C4.5625 122.938 5.29167 121.417 6.125 120C6.875 118.958 7.4375 118 7.8125 117.125C8.02083 116.667 8.20833 116.208 8.375 115.75C8.58333 115.25 8.79167 114.75 9 114.25C9.41667 113.333 9.83333 112.438 10.25 111.562C10.6667 110.688 11.125 109.792 11.625 108.875C12.0417 108.042 12.4792 107.208 12.9375 106.375C13.3958 105.542 14 104.792 14.75 104.125C15 103.208 15.375 102.438 15.875 101.812C16.125 101.479 16.375 101.167 16.625 100.875C16.875 100.542 17.125 100.208 17.375 99.875C17.7917 99.2917 18.2083 98.7292 18.625 98.1875C19.0833 97.6458 19.5208 97.125 19.9375 96.625C20.7708 95.7083 21.5417 94.5833 22.25 93.25C22.9167 92.75 23.5208 92.2083 24.0625 91.625C24.6042 91.0417 25.125 90.4583 25.625 89.875C25.9167 89.5417 26.1875 89.2292 26.4375 88.9375C26.7292 88.6458 27.0208 88.3542 27.3125 88.0625C27.6042 87.7708 27.875 87.4792 28.125 87.1875C28.4167 86.8958 28.7083 86.5833 29 86.25C29.3333 86 29.6458 85.7292 29.9375 85.4375C30.2292 85.1458 30.5 84.875 30.75 84.625C31.3333 83.9583 31.9167 83.375 32.5 82.875C33.0833 82.375 33.7083 81.875 34.375 81.375C34.9583 81.125 35.6667 80.6667 36.5 80C36.875 79.625 37.25 79.25 37.625 78.875C38 78.5 38.3542 78.1042 38.6875 77.6875C39.0208 77.2708 39.375 76.8958 39.75 76.5625C40.125 76.1875 40.5 75.8333 40.875 75.5C42.0417 74.3333 43.25 73.1875 44.5 72.0625C45.75 70.9375 47.0833 69.9167 48.5 69C49.3333 68.0833 50.3333 67.3125 51.5 66.6875C52.6667 66.0625 53.8333 65.4583 55 64.875C55.6667 64.625 56.2292 64.3958 56.6875 64.1875C57.1458 63.9792 57.6667 63.7083 58.25 63.375C59.2083 62.7917 59.875 62.4792 60.25 62.4375C60.6667 62.3958 61 62.2083 61.25 61.875C62.2917 61.875 63.1667 61.7292 63.875 61.4375C64.5833 61.1458 65.4167 61.125 66.375 61.375C66.6667 61.4167 66.9583 61.5208 67.25 61.6875C67.5833 61.8542 67.8333 61.9583 68 62C69.5833 62.1667 70.7083 62.4167 71.375 62.75C72.0417 63.0833 72.6875 63.3958 73.3125 63.6875C73.9375 63.9792 74.6667 64.1667 75.5 64.25ZM72 146.5C73.875 144.875 75.6458 143.062 77.3125 141.062C78.1458 140.104 79 139.125 79.875 138.125C80.75 137.125 81.6667 136.125 82.625 135.125C83.0417 134.708 83.4583 134.208 83.875 133.625C84.2917 133.042 84.7083 132.417 85.125 131.75C85.4583 131.25 85.875 130.771 86.375 130.312C86.9167 129.812 87.3333 129.375 87.625 129C87.875 128.583 88.1875 128.25 88.5625 128C88.7708 127.875 88.9583 127.75 89.125 127.625C89.3333 127.458 89.5417 127.292 89.75 127.125C90.1667 126.708 90.5417 126.354 90.875 126.062C91.2083 125.771 91.5833 125.458 92 125.125C92.375 124.833 92.7292 124.542 93.0625 124.25C93.4375 123.917 93.7917 123.604 94.125 123.312C94.7917 122.688 95.5833 122.167 96.5 121.75C97 121.667 97.375 121.479 97.625 121.188C97.7917 120.979 98.0833 120.667 98.5 120.25C99 120.333 99.375 120.292 99.625 120.125C99.7917 120.042 99.9583 119.958 100.125 119.875C100.333 119.792 100.542 119.708 100.75 119.625C101.917 119.875 102.854 120.333 103.562 121C104.271 121.667 104.958 122.333 105.625 123C106.208 123.25 106.667 123.479 107 123.688C107.333 123.896 107.667 124.125 108 124.375C108.333 125.042 108.625 125.667 108.875 126.25C109.125 126.833 109.25 127.5 109.25 128.25C109.25 128.583 109.208 129.083 109.125 129.75C109.083 130 109.042 130.25 109 130.5C108.958 130.75 108.917 131 108.875 131.25C108.542 132.25 108.417 132.792 108.5 132.875C108.583 132.958 108.625 133.083 108.625 133.25C108.708 134 108.479 134.688 107.938 135.312C107.396 135.979 107.25 136.708 107.5 137.5C107.583 137.833 107.479 138.458 107.188 139.375C106.896 140.292 106.792 140.917 106.875 141.25C107.042 141.708 107.125 142.354 107.125 143.188C107.125 144.021 107.333 144.583 107.75 144.875C108.625 145.208 109.208 145.375 109.5 145.375H110.375C111.375 144.875 112.625 144.021 114.125 142.812C115.625 141.604 116.75 140.583 117.5 139.75C117.917 139.417 118.312 139.083 118.688 138.75C119.062 138.417 119.417 138.104 119.75 137.812C120.542 137.104 121.458 136.5 122.5 136C123.583 135.25 124.25 134.729 124.5 134.438L126.125 132.625C126.375 132.375 126.688 132.125 127.062 131.875C127.438 131.625 127.792 131.333 128.125 131C128.792 130.333 129.458 129.875 130.125 129.625H131.562C132.146 129.625 132.542 129.792 132.75 130.125C132.917 130.792 132.917 131.375 132.75 131.875C132.583 132.375 132.375 132.833 132.125 133.25C131.833 133.708 131.458 134.167 131 134.625C130.667 135.25 130.292 135.792 129.875 136.25C129.667 136.458 129.438 136.688 129.188 136.938C128.979 137.146 128.75 137.396 128.5 137.688C128 138.271 127.417 138.708 126.75 139C126.542 139.25 126.333 139.479 126.125 139.688C125.958 139.896 125.771 140.104 125.562 140.312L124.375 141.5C123.917 141.958 123.542 142.417 123.25 142.875C122.958 143.333 122.583 143.792 122.125 144.25C121.667 144.625 121.208 145 120.75 145.375C120.333 145.75 119.896 146.104 119.438 146.438C118.562 147.104 117.75 147.917 117 148.875C116.625 149.042 116.292 149.229 116 149.438C115.833 149.562 115.542 149.75 115.125 150C114.083 150.292 113.021 150.896 111.938 151.812C110.896 152.729 109.812 153.583 108.688 154.375C107.604 155.125 106.458 155.458 105.25 155.375C104.333 155.792 103.542 155.812 102.875 155.438C102.208 155.062 101.542 154.667 100.875 154.25C99.9583 153.667 99.0833 153 98.25 152.25C97.4167 151.5 96.9167 150.458 96.75 149.125C96.5833 146.958 96.8333 144.917 97.5 143C98.2083 141.042 98.7083 139.125 99 137.25C99 137.042 99.125 136.292 99.375 135C99.6667 133.667 99.7083 132.792 99.5 132.375C99.375 132.208 99.2708 131.917 99.1875 131.5C99.1458 131.083 98.7917 130.667 98.125 130.25C97.75 130.042 97.5833 130 97.625 130.125C97.6667 130.292 97.3333 130.375 96.625 130.375C95.9167 130.625 95.3333 130.958 94.875 131.375C94.625 131.583 94.3542 131.792 94.0625 132C93.8125 132.208 93.5417 132.417 93.25 132.625C92.5 133.5 91.5625 134.333 90.4375 135.125C89.4375 135.833 88.5417 136.708 87.75 137.75C87.0833 138.5 86.4583 139.25 85.875 140C85.375 140.667 84.7083 141.417 83.875 142.25C81.5417 144.917 79.25 147.375 77 149.625C76.7083 149.958 76.4167 150.292 76.125 150.625C75.875 150.958 75.625 151.292 75.375 151.625C75.125 151.958 74.8542 152.292 74.5625 152.625C74.3125 152.958 74.0417 153.292 73.75 153.625C72.75 154.875 71.6667 156.083 70.5 157.25C70 158.083 69.2917 158.875 68.375 159.625C67.4583 160.375 66.5417 160.917 65.625 161.25C65.375 161.083 65.1042 161.083 64.8125 161.25C64.5208 161.417 64.25 161.5 64 161.5C63.5 161.292 63.1042 161.125 62.8125 161C62.5208 160.917 62.3333 160.854 62.25 160.812C62.0833 160.729 61.9583 160.542 61.875 160.25C61.0417 159.75 60.7292 158.938 60.9375 157.812C61.1458 156.688 61.3333 155.708 61.5 154.875C61.9167 153 62.4167 151.125 63 149.25C63.5833 147.375 64.2292 145.521 64.9375 143.688C65.6458 141.854 66.2917 140.021 66.875 138.188C67.4583 136.354 67.9583 134.542 68.375 132.75C68.7917 131.333 69.2083 130.021 69.625 128.812C70.0417 127.604 70.5417 126.333 71.125 125C71.75 123.667 72.1458 122.479 72.3125 121.438C72.4792 120.396 72.875 119.208 73.5 117.875C73.875 117.208 74.1667 116.583 74.375 116C74.625 115.292 74.875 114.667 75.125 114.125C76.0833 112.417 76.9583 110.354 77.75 107.938C78.5833 105.479 79.4583 103.292 80.375 101.375C81.375 98.7083 82.4167 96.125 83.5 93.625C84.5833 91.125 85.7917 88.6667 87.125 86.25C87.9167 83.0417 89.2083 80.0417 91 77.25C91.8333 76.1667 92.3958 75.2917 92.6875 74.625C93.0625 73.7917 93.4167 73.1667 93.75 72.75C94.75 71.5417 95.875 70.6042 97.125 69.9375C98.3333 69.2708 99.4167 68.3333 100.375 67.125C101.083 66.7917 101.729 66.5417 102.312 66.375C102.646 66.2917 102.958 66.2083 103.25 66.125C103.542 66 103.833 65.875 104.125 65.75C104.375 66 104.5 66.5 104.5 67.25C104.667 67.25 104.708 67.5 104.625 68C104.542 68.5 104.542 68.9167 104.625 69.25C104.625 70.4167 104.521 71.25 104.312 71.75L103.75 73.125C103.667 73.7917 103.625 74.2292 103.625 74.4375C103.625 74.7292 103.583 75.0833 103.5 75.5C103.25 76.2917 103.146 76.7292 103.188 76.8125C103.229 76.8958 103.25 77.0417 103.25 77.25C103.25 77.4167 103.208 77.7917 103.125 78.375C103.042 78.9583 103 79.375 103 79.625C102.958 80.4583 102.729 81.4167 102.312 82.5C101.979 83.4167 101.667 84.3333 101.375 85.25C100.875 85.8333 100.583 86.2917 100.5 86.625C100.417 86.9583 100.25 87.1667 100 87.25C99.75 87.9583 99.5 88.6667 99.25 89.375C99.0417 90.0417 98.8333 90.7083 98.625 91.375C98.2083 92.6667 97.5833 93.9167 96.75 95.125C96.4583 96 96.0208 96.8958 95.4375 97.8125C95.1458 98.2292 94.875 98.6667 94.625 99.125C94.4167 99.5417 94.2083 99.9583 94 100.375L93.4375 101.562C93.1875 102.062 93 102.458 92.875 102.75C92.2917 103.833 91.6875 104.938 91.0625 106.062C90.4375 107.188 89.7083 108.208 88.875 109.125C87.375 112.292 85.7917 115.479 84.125 118.688C82.4583 121.896 80.8333 125 79.25 128C78.9583 128.458 78.7083 128.896 78.5 129.312C78.2917 129.688 78.125 130.042 78 130.375C77.7917 130.833 77.6458 131.354 77.5625 131.938C77.4792 132.438 77.25 132.875 76.875 133.25C76.75 133.625 76.625 134 76.5 134.375C76.375 134.708 76.2708 135.042 76.1875 135.375C76.0208 136.042 75.7083 136.667 75.25 137.25C74.9583 138.875 74.4375 140.438 73.6875 141.938C72.9792 143.354 72.4167 144.875 72 146.5ZM152.75 93.375L154 93.75C154.167 93.9583 154.25 94.2083 154.25 94.5C154.25 94.7083 154.375 94.9167 154.625 95.125C154.458 95.875 154.312 96.6458 154.188 97.4375C154.062 98.2292 154 99 154 99.75C154 100.042 154.104 100.333 154.312 100.625C154.521 100.917 154.625 101.167 154.625 101.375C154.208 102.333 153.896 102.917 153.688 103.125C153.479 103.333 153.375 103.542 153.375 103.75C152.958 103.917 152.646 104.167 152.438 104.5C152.229 104.833 151.875 105 151.375 105C151.208 105.25 151.021 105.438 150.812 105.562C150.562 105.729 150.417 105.958 150.375 106.25C149 106.833 147.5 106.792 145.875 106.125C145.417 105.333 144.833 104.792 144.125 104.5C143.042 102.917 143 101.042 144 98.875C144.167 98.4583 144.354 98.0208 144.562 97.5625C144.771 97.1042 144.958 96.7917 145.125 96.625C146 96 146.667 95.5833 147.125 95.375C147.292 95.2917 147.458 95.2083 147.625 95.125C147.833 95 148.021 94.875 148.188 94.75C148.479 94.5417 148.917 94.3333 149.5 94.125C149.75 94.0417 149.979 94 150.188 94C150.521 94 150.833 93.9167 151.125 93.75C151.292 93.7083 151.438 93.6667 151.562 93.625C151.729 93.5833 151.875 93.5417 152 93.5C152.333 93.4167 152.583 93.375 152.75 93.375ZM134 148.75L134.625 149C135.375 148.667 136.292 148.542 137.375 148.625C138.5 148.708 139.375 148.542 140 148.125C140.417 147.792 140.708 147.542 140.875 147.375C141.125 147.125 141.417 147.042 141.75 147.125C143.083 146.625 144.208 146.125 145.125 145.625C146.083 145.125 147.083 144.75 148.125 144.5C148.792 144.25 149.375 143.875 149.875 143.375C151.583 142.833 153.021 142.062 154.188 141.062C155.396 140.062 156.708 139 158.125 137.875C159.292 137.208 160.271 136.625 161.062 136.125C161.854 135.625 162.708 135 163.625 134.25C163.833 133.792 164.062 133.479 164.312 133.312C164.521 133.188 164.75 132.917 165 132.5C166.5 132.5 167.333 133.083 167.5 134.25C167.083 135.167 166.521 135.917 165.812 136.5C165.062 137.125 164.417 137.792 163.875 138.5C163.208 138.917 162.667 139.292 162.25 139.625C161.833 139.958 161.417 140.458 161 141.125C160.958 141.125 160.708 141.312 160.25 141.688C159.833 142.062 159.583 142.25 159.5 142.25C158.833 143.042 158.333 143.521 158 143.688C157.667 143.854 157.083 144.292 156.25 145C155.708 145.917 154.958 146.667 154 147.25C152.208 148.958 150.312 150.396 148.312 151.562C147.271 152.146 146.292 152.75 145.375 153.375C144.458 153.958 143.583 154.542 142.75 155.125C142.333 155.375 142.042 155.604 141.875 155.812C141.708 156.021 141.417 156.292 141 156.625C140.583 156.958 139.938 157.292 139.062 157.625C138.188 157.958 137.417 158.25 136.75 158.5C136.208 158.833 135.75 159.083 135.375 159.25C133.5 159.333 132.083 159.042 131.125 158.375C130.042 157.792 129.208 157.333 128.625 157C128.042 156.667 127.542 156.125 127.125 155.375C126.167 154.917 125.604 154.146 125.438 153.062C125.354 152.479 125.25 151.917 125.125 151.375C125 150.833 124.875 150.292 124.75 149.75C124.667 149.333 124.583 148.854 124.5 148.312C124.417 147.771 124.417 147.208 124.5 146.625C124.708 145.667 124.833 144.688 124.875 143.688C124.917 142.771 125.125 141.875 125.5 141C125.875 140.167 126.104 139.25 126.188 138.25C126.271 137.25 126.5 136.333 126.875 135.5C127.417 134.667 127.646 134.208 127.562 134.125C127.521 134.083 127.542 133.958 127.625 133.75L128.188 133C128.312 132.833 128.5 132.542 128.75 132.125L129.5 130.25C129.875 129.542 130.25 128.958 130.625 128.5C131 128 131.333 127.292 131.625 126.375C131.833 125.792 132.062 125.333 132.312 125C132.479 124.792 132.625 124.583 132.75 124.375C132.917 124.125 133.083 123.875 133.25 123.625C133.458 123.208 133.667 122.688 133.875 122.062C133.958 121.771 134.042 121.5 134.125 121.25C134.25 120.958 134.375 120.667 134.5 120.375C134.75 119.708 135.062 119.042 135.438 118.375C135.812 117.708 136.208 117.042 136.625 116.375C136.958 115.708 137.25 115.208 137.5 114.875C137.75 114.542 138.25 114.333 139 114.25C139.375 114.167 139.75 114.188 140.125 114.312C140.583 114.438 141 114.417 141.375 114.25C142.458 113.75 143.208 113.5 143.625 113.5C144.042 113.5 144.333 113.375 144.5 113.125C145.375 113.167 146.042 113.458 146.5 114C146.958 114.5 147.458 115 148 115.5C147.5 117.917 146.938 119.771 146.312 121.062C145.688 122.354 145 123.708 144.25 125.125C143.833 125.792 143.417 126.542 143 127.375C142.583 128.208 142.208 128.958 141.875 129.625C141.458 130.542 141.021 131.354 140.562 132.062C140.021 132.896 139.625 133.708 139.375 134.5L138.812 135.688C138.562 136.188 138.375 136.583 138.25 136.875C138.167 137.167 138.062 137.458 137.938 137.75C137.854 138 137.729 138.229 137.562 138.438C137.396 138.646 137.25 138.875 137.125 139.125C137 139.333 136.875 139.542 136.75 139.75C136.5 140.25 136.25 140.75 136 141.25C135.75 141.75 135.542 142.292 135.375 142.875C134.958 143.792 134.708 144.396 134.625 144.688C134.583 144.771 134.542 144.875 134.5 145C134.458 145.083 134.417 145.167 134.375 145.25C134.208 146.167 133.958 146.917 133.625 147.5C133.292 148.083 133.417 148.5 134 148.75ZM194.875 146.125C195.208 145.667 195.458 145.354 195.625 145.188C195.833 144.979 196.083 144.792 196.375 144.625C197.417 142.417 198.771 140.667 200.438 139.375C202.146 138.083 203.958 136.625 205.875 135C206.292 135 206.646 134.854 206.938 134.562C207.229 134.271 207.583 134.042 208 133.875C208.5 133.417 208.979 133.042 209.438 132.75C209.812 132.5 210.125 132.167 210.375 131.75C211.333 131.292 212.229 130.667 213.062 129.875C213.938 129.083 214.792 128.375 215.625 127.75C216.292 127.583 217 127.667 217.75 128C218.083 128.667 218.208 129.375 218.125 130.125C218.042 130.875 217.625 131.292 216.875 131.375C216.625 131.625 216.354 131.875 216.062 132.125C215.771 132.375 215.417 132.542 215 132.625C214.167 132.792 213.625 133.125 213.375 133.625C213.333 134.417 213.229 134.896 213.062 135.062C212.896 135.229 212.792 135.375 212.75 135.5C211.833 137.042 210.812 138.375 209.688 139.5C208.562 140.583 207.5 141.917 206.5 143.5C206.042 143.792 205.667 144.25 205.375 144.875C203.875 145.708 202.771 146.354 202.062 146.812C201.354 147.271 200.708 147.833 200.125 148.5C199.625 148.792 199.375 149.042 199.375 149.25C199.375 149.417 199.292 149.583 199.125 149.75C198.292 150.458 197.812 150.979 197.688 151.312C197.562 151.646 197.375 151.917 197.125 152.125C196.708 152.417 196.333 152.708 196 153C195.708 153.25 195.458 153.479 195.25 153.688C194.75 154.188 194.208 154.542 193.625 154.75C192.917 155.333 191.875 156.021 190.5 156.812C189.125 157.646 187.708 158.271 186.25 158.688C184.792 159.146 183.583 159.167 182.625 158.75L181.75 158.062C181.583 157.938 181.292 157.75 180.875 157.5C180.333 156.833 179.729 156.271 179.062 155.812C178.479 155.396 177.917 154.792 177.375 154C176.75 153.125 176.354 152.229 176.188 151.312C176.021 150.354 175.708 149.417 175.25 148.5C175.042 146.333 175.208 144.542 175.75 143.125C176.208 141.708 176.708 140.396 177.25 139.188C177.792 137.938 178.396 136.792 179.062 135.75C180.354 133.75 181.25 131.375 181.75 128.625C180.833 127.708 180.312 126.854 180.188 126.062C180.146 125.646 180.062 125.167 179.938 124.625C179.812 124.083 179.667 123.458 179.5 122.75C177.333 124.167 175.333 125.958 173.5 128.125C171.667 130.292 170.042 132.5 168.625 134.75L167.125 137.5C166.708 138.292 166.208 139.042 165.625 139.75C165.208 140.167 165 140.438 165 140.562C165 140.688 164.917 140.833 164.75 141C164.417 141.417 164.146 141.771 163.938 142.062C163.729 142.354 163.583 142.583 163.5 142.75C163.417 142.917 163.333 143.083 163.25 143.25C163.167 143.375 163.083 143.5 163 143.625C162.75 143.958 162.542 144.208 162.375 144.375C162.208 144.542 162 144.792 161.75 145.125C160.583 146.792 159.521 148.354 158.562 149.812L155.625 154.25C155.167 154.958 154.792 155.667 154.5 156.375C154.208 157.125 153.792 157.792 153.25 158.375C152.417 158.458 151.938 158.333 151.812 158C151.688 157.667 151.708 157.375 151.875 157.125C150.875 156.458 150.312 155.167 150.188 153.25C150.062 151.333 150.25 149.792 150.75 148.625C150.5 147.875 150.417 147.458 150.5 147.375C150.583 147.292 150.625 147.167 150.625 147C151.708 145.5 152.812 144 153.938 142.5C155.062 141 156.25 139.583 157.5 138.25C157.708 137.958 157.917 137.667 158.125 137.375C158.333 137.083 158.521 136.792 158.688 136.5C159.104 135.875 159.542 135.333 160 134.875C160.708 133.667 161.562 132.417 162.562 131.125C163.562 129.875 164.375 128.583 165 127.25C165.458 126.792 165.771 126.333 165.938 125.875C166.146 125.375 166.5 124.958 167 124.625C167.292 124.125 167.542 123.646 167.75 123.188C168 122.688 168.208 122.208 168.375 121.75C168.625 120.958 169.083 120.167 169.75 119.375C169.917 118.792 170.125 118.333 170.375 118C170.625 117.667 170.958 117.292 171.375 116.875C171.417 116.5 171.646 116.146 172.062 115.812C172.479 115.479 172.792 115.125 173 114.75C173.208 114.167 173.417 113.792 173.625 113.625C173.875 113.417 174 113.125 174 112.75C174.417 112.333 174.833 111.896 175.25 111.438C175.667 110.979 176.042 110.417 176.375 109.75C177.542 109.083 178.354 108.75 178.812 108.75C179.271 108.75 179.625 108.542 179.875 108.125C180.208 108.125 180.562 108.125 180.938 108.125C181.354 108.125 181.792 108.104 182.25 108.062C183.208 107.979 183.708 108.292 183.75 109C183.792 109.167 183.792 109.375 183.75 109.625C183.708 109.75 183.667 109.875 183.625 110C183.583 110.125 183.542 110.25 183.5 110.375C183.542 111.125 183.542 111.521 183.5 111.562C183.417 111.646 183.375 111.708 183.375 111.75C183.292 112.083 183.271 112.375 183.312 112.625C183.354 112.833 183.375 113.208 183.375 113.75C183.333 114.083 183.292 114.375 183.25 114.625C183.208 114.875 183.167 115.104 183.125 115.312C183.042 115.729 183.208 116.208 183.625 116.75C183.833 117.042 184.083 117.271 184.375 117.438C184.667 117.604 184.958 117.875 185.25 118.25C185.458 118.458 185.604 118.708 185.688 119C185.771 119.292 185.917 119.542 186.125 119.75C186.292 119.958 186.542 120.167 186.875 120.375C187.208 120.583 187.458 120.875 187.625 121.25C188.083 121.583 188.229 121.792 188.062 121.875C187.938 121.958 188.125 122.125 188.625 122.375C189.583 123.583 190.292 124.875 190.75 126.25C191.292 127.292 191.75 128.125 192.125 128.75C192.542 129.417 192.542 130.083 192.125 130.75C191.875 131 191.583 131.5 191.25 132.25C190.875 132.625 190.542 133.042 190.25 133.5C190.083 133.792 189.958 134.104 189.875 134.438C189.833 134.729 189.708 135 189.5 135.25C188.75 136.458 187.979 137.542 187.188 138.5C186.396 139.458 185.708 140.5 185.125 141.625C185.167 144 185.625 145.75 186.5 146.875C187.5 148.042 188.125 148.625 188.375 148.625C188.917 148.708 189.5 148.542 190.125 148.125L191.75 147.125C191.917 147.042 192.062 146.958 192.188 146.875C192.354 146.792 192.5 146.708 192.625 146.625C192.875 146.458 193.167 146.333 193.5 146.25C194.375 145.958 194.792 145.854 194.75 145.938C194.708 146.062 194.75 146.125 194.875 146.125ZM241.125 141.5C242.542 141.083 243.958 140.708 245.375 140.375C246.792 140.042 248.25 139.792 249.75 139.625C251.083 139.542 252.458 139.292 253.875 138.875L255.625 138.312C255.917 138.229 256.188 138.146 256.438 138.062C256.729 137.938 257 137.833 257.25 137.75C257.833 137.583 258.396 137.438 258.938 137.312C259.479 137.188 259.958 137.083 260.375 137C261.042 137.5 261.354 137.771 261.312 137.812C261.271 137.854 261.333 137.958 261.5 138.125L260.5 139.875C260.167 140.125 259.771 140.292 259.312 140.375C258.896 140.417 258.458 140.542 258 140.75C257.583 141 257.333 141.167 257.25 141.25C257.042 141.458 256.875 141.583 256.75 141.625C256.375 141.708 256.104 141.688 255.938 141.562C255.688 141.396 255.5 141.292 255.375 141.25C253.333 142.583 251.042 143.5 248.5 144C245.833 144.5 243.375 145.125 241.125 145.875C240.292 146.292 239.458 146.729 238.625 147.188C237.792 147.646 236.917 148.167 236 148.75C235.333 150.083 234.396 151.375 233.188 152.625C231.979 153.875 230.75 154.958 229.5 155.875C229.167 156.125 228.896 156.312 228.688 156.438C228.521 156.521 228.375 156.604 228.25 156.688C228.167 156.771 228.083 156.833 228 156.875C227.708 157 227.396 157.104 227.062 157.188C226.729 157.312 226.396 157.417 226.062 157.5C225.729 157.583 225.396 157.667 225.062 157.75C224.729 157.833 224.417 157.917 224.125 158C223.625 158.5 223.208 158.75 222.875 158.75C222.333 158.833 221.833 158.75 221.375 158.5C220.833 158.208 220.292 158.042 219.75 158C219.333 157.25 219.083 156.729 219 156.438C218.917 156.229 218.75 156.083 218.5 156C218.292 155.167 217.812 154.375 217.062 153.625C216.354 152.917 215.792 152.125 215.375 151.25C215.208 150.917 215.062 150.562 214.938 150.188C214.812 149.812 214.75 149.458 214.75 149.125C214.833 148.208 215.208 147.417 215.875 146.75C216.542 146.083 217.208 145.542 217.875 145.125C218.375 145.875 218.812 146.167 219.188 146C219.562 145.833 219.875 145.667 220.125 145.5C220.417 145.375 220.771 145.271 221.188 145.188L222 145C223.25 144.708 224.583 144.458 226 144.25C226.917 144.167 227.625 144.188 228.125 144.312C228.75 144.438 229.417 144.417 230.125 144.25C230.542 143.5 231.062 142.792 231.688 142.125C232.312 141.458 232.917 140.833 233.5 140.25C233.917 139.25 234.458 138.167 235.125 137C235.792 135.833 236.458 134.708 237.125 133.625L238.25 131.375C238.417 131.208 238.562 131.042 238.688 130.875C238.812 130.708 238.958 130.458 239.125 130.125C239.292 129.458 239.354 128.812 239.312 128.188C239.271 127.562 239.208 126.875 239.125 126.125C238.333 125.667 237.542 125.042 236.75 124.25C236.25 124.458 235.771 124.458 235.312 124.25C234.854 124.042 234.375 124.042 233.875 124.25C233.625 124.292 233.375 124.417 233.125 124.625C233 124.708 232.854 124.792 232.688 124.875C232.562 124.958 232.417 125.042 232.25 125.125C231.5 125.542 230.688 125.917 229.812 126.25C228.938 126.542 228.25 127.042 227.75 127.75C227.292 128.208 226.875 128.646 226.5 129.062C226.125 129.438 225.792 129.792 225.5 130.125C225.208 130.458 224.896 130.812 224.562 131.188C224.271 131.521 223.958 131.875 223.625 132.25C223.208 132.583 222.854 132.875 222.562 133.125C222.312 133.333 222.146 133.521 222.062 133.688C221.938 133.896 221.75 134.125 221.5 134.375C221.25 134.625 221 134.875 220.75 135.125C220.5 135.333 220.25 135.542 220 135.75C219.5 136.167 219.042 136.625 218.625 137.125C218.375 137.458 218.146 137.688 217.938 137.812C217.729 137.938 217.5 138.167 217.25 138.5C216.75 139.042 216.312 139.667 215.938 140.375C215.604 141 215.208 141.667 214.75 142.375L212.25 146.375C211.792 147.667 211.292 148.958 210.75 150.25C210.25 151.5 209.708 152.729 209.125 153.938C208.542 155.146 207.979 156.396 207.438 157.688C206.938 158.979 206.458 160.292 206 161.625C205.833 162.5 205.708 162.979 205.625 163.062C205.542 163.146 205.5 163.25 205.5 163.375C205.417 163.708 205.354 164.021 205.312 164.312C205.229 164.604 205.146 164.896 205.062 165.188C204.938 165.729 204.75 166.25 204.5 166.75C204.333 167.417 204.083 168.104 203.75 168.812C203.417 169.521 203.083 170.208 202.75 170.875C202.208 172.208 201.708 173.479 201.25 174.688C200.75 176.062 200.25 177.375 199.75 178.625C199.542 179.083 199.354 179.542 199.188 180C199.021 180.458 198.854 180.917 198.688 181.375L197.75 184.125C197.542 184.583 197.396 185.083 197.312 185.625C197.271 185.875 197.229 186.125 197.188 186.375C197.146 186.625 197.083 186.875 197 187.125C196.75 188 196.438 188.958 196.062 190C195.646 191.083 195.417 192.042 195.375 192.875C194.167 194.042 193.333 195.042 192.875 195.875C191.958 196.792 191 197.604 190 198.312C189 199.021 187.875 199.625 186.625 200.125C185.833 200.125 184.812 200.042 183.562 199.875C182.271 199.75 181.625 199.208 181.625 198.25C181.542 197.5 181.562 196.542 181.688 195.375C181.812 194.208 182.083 193.208 182.5 192.375C182.833 191.458 183.188 190.583 183.562 189.75C183.938 188.917 184.292 188.208 184.625 187.625C185.125 185.458 185.75 183.625 186.5 182.125C186.708 181.667 186.917 181.229 187.125 180.812C187.333 180.396 187.542 179.979 187.75 179.562C188.208 178.688 188.583 177.833 188.875 177C189.083 176.417 189.208 175.792 189.25 175.125C189.292 174.458 189.542 173.875 190 173.375C190.583 171.958 191.312 170.625 192.188 169.375C193.062 168.125 193.958 166.875 194.875 165.625C195.333 164.917 195.708 164.229 196 163.562C196.333 162.854 196.708 162.167 197.125 161.5C197.875 160.208 198.5 158.875 199 157.5C199.5 156.083 200.208 154.792 201.125 153.625C201.333 153.167 201.542 152.729 201.75 152.312C201.958 151.896 202.167 151.479 202.375 151.062L203.625 148.625C203.75 148.333 203.896 147.896 204.062 147.312C204.229 146.729 204.375 146.292 204.5 146C204.75 145.625 205 145.25 205.25 144.875C205.458 144.458 205.667 144.042 205.875 143.625C206.625 141.958 207.396 140.312 208.188 138.688C208.979 137.062 209.875 135.458 210.875 133.875C210.917 133 211.146 132.167 211.562 131.375C211.771 131 211.958 130.604 212.125 130.188C212.292 129.771 212.458 129.333 212.625 128.875C212.875 128.167 213.062 127.458 213.188 126.75C213.354 125.875 213.5 125.167 213.625 124.625C213.875 123.875 214.167 123.292 214.5 122.875C214.958 122.292 215.333 121.667 215.625 121C215.708 120.875 215.792 120.75 215.875 120.625C215.958 120.5 216.042 120.354 216.125 120.188C216.208 120.021 216.292 119.875 216.375 119.75C216.458 119.625 216.542 119.5 216.625 119.375C216.875 118.875 217.062 118.438 217.188 118.062C217.271 117.771 217.5 117.375 217.875 116.875C218.875 115.708 219.521 115.062 219.812 114.938C220.021 114.854 220.229 114.75 220.438 114.625C220.646 114.458 220.875 114.292 221.125 114.125C222.792 114.042 223.833 114.438 224.25 115.312C224.667 116.188 225.042 117.083 225.375 118C225.208 118.667 225.042 119.333 224.875 120C224.708 120.667 224.542 121.458 224.375 122.375C224.708 122.083 225.042 121.792 225.375 121.5C225.75 121.167 226.146 120.833 226.562 120.5C227.396 119.792 228.125 119.125 228.75 118.5C229.458 118.083 230.146 117.646 230.812 117.188C231.521 116.729 232.208 116.271 232.875 115.812C234.208 114.854 235.708 114.042 237.375 113.375C237.792 113.208 238.229 113.042 238.688 112.875C239.146 112.708 239.583 112.625 240 112.625C240.375 112.625 240.729 112.729 241.062 112.938C241.479 113.188 241.875 113.333 242.25 113.375C242.708 113.833 243.188 114.229 243.688 114.562C244.146 114.854 244.625 115.292 245.125 115.875C245.458 116.292 245.708 116.792 245.875 117.375C245.958 117.667 246.042 117.958 246.125 118.25C246.208 118.542 246.292 118.833 246.375 119.125C246.458 119.417 246.542 119.708 246.625 120C246.75 120.292 246.896 120.583 247.062 120.875C247.354 121.417 247.542 121.958 247.625 122.5C247.625 122.75 247.583 123.167 247.5 123.75C247.417 124.333 247.375 124.75 247.375 125C247.375 125.333 247.396 125.583 247.438 125.75C247.479 125.917 247.5 126.25 247.5 126.75C247.458 127.542 247.125 128.583 246.5 129.875L245 133C244.833 133.333 244.667 133.667 244.5 134C244.375 134.292 244.25 134.583 244.125 134.875L243.25 136.75C242.833 137.667 242.458 138.5 242.125 139.25C241.792 140 241.458 140.75 241.125 141.5ZM302 90.375L301.875 91.625C302.208 92.375 302.375 92.9167 302.375 93.25C302.375 93.5 302.417 93.9167 302.5 94.5C302.333 94.7917 302.25 95.0625 302.25 95.3125C302.25 95.5625 302.167 95.8333 302 96.125L300.812 98.1875C300.438 98.8125 300.125 99.5 299.875 100.25C299.458 101.167 298.958 102.167 298.375 103.25C297.792 104.333 297.167 105.417 296.5 106.5C296.083 107.667 295.562 108.833 294.938 110C294.646 110.583 294.354 111.167 294.062 111.75C293.771 112.333 293.5 112.917 293.25 113.5C294.667 113.167 295.917 112.958 297 112.875C298.083 112.792 299.083 112.792 300 112.875C300.583 112.875 301.042 112.896 301.375 112.938C301.708 112.979 302.167 113 302.75 113C303.5 113.083 304.271 113.104 305.062 113.062C305.854 113.021 306.667 112.958 307.5 112.875C308.583 112.792 309.542 112.812 310.375 112.938C311.333 113.062 312.25 113.125 313.125 113.125C313.875 114.042 314.125 114.875 313.875 115.625C313.625 116.375 313.167 117.167 312.5 118C311.25 118.208 310.292 118.417 309.625 118.625C308.875 118.875 308.167 119 307.5 119C306.958 119.25 306.396 119.375 305.812 119.375C305.188 119.375 304.625 119.458 304.125 119.625C303.958 119.75 303.667 119.896 303.25 120.062C302.833 120.229 302.542 120.375 302.375 120.5C301.333 120.667 300.542 120.708 300 120.625C299.417 120.542 299 120.5 298.75 120.5C298.333 120.458 297.917 120.438 297.5 120.438C297.125 120.396 296.75 120.375 296.375 120.375H293.875C293.458 120.375 293.146 120.396 292.938 120.438C292.729 120.479 292.458 120.5 292.125 120.5C291.542 120.583 291.104 120.604 290.812 120.562C290.396 120.479 289.958 120.542 289.5 120.75C289.167 121.708 288.792 122.688 288.375 123.688C288 124.646 287.583 125.604 287.125 126.562C286.667 127.521 286.229 128.5 285.812 129.5C285.438 130.458 285.083 131.417 284.75 132.375C284.5 133.375 284.167 134.208 283.75 134.875L283 136.5C282.917 136.792 282.833 137.083 282.75 137.375C282.708 137.625 282.646 137.854 282.562 138.062C282.521 138.271 282.458 138.5 282.375 138.75C282.292 139 282.208 139.25 282.125 139.5C281.958 139.917 281.771 140.312 281.562 140.688C281.354 141.062 281.125 141.458 280.875 141.875C280.458 142.208 280.021 142.542 279.562 142.875C279.104 143.208 278.667 143.458 278.25 143.625C277.75 143.625 277.188 143.729 276.562 143.938C276.021 144.104 275.542 144.083 275.125 143.875C274.208 144.125 273.729 144.188 273.688 144.062C273.604 143.896 273.5 143.75 273.375 143.625C272.958 143.333 272.75 143 272.75 142.625V141.875C272.667 141.625 272.667 141.312 272.75 140.938C272.833 140.562 272.917 140.208 273 139.875C274.167 137.708 275.25 135.542 276.25 133.375L276.688 132.25C276.771 132.083 276.833 131.917 276.875 131.75C276.958 131.583 277.042 131.417 277.125 131.25C277.208 131 277.271 130.771 277.312 130.562C277.354 130.312 277.396 130.104 277.438 129.938C277.521 129.438 277.625 129.042 277.75 128.75C278.208 127.542 278.833 126.354 279.625 125.188C280.458 123.979 281.125 122.583 281.625 121C278.958 121.25 276.5 121.438 274.25 121.562C272 121.688 269.792 121.458 267.625 120.875C265.167 120.708 264.125 119.75 264.5 118C264.25 117.5 264.229 117.125 264.438 116.875C264.646 116.583 264.833 116.25 265 115.875C265.542 115.292 265.833 115.021 265.875 115.062C265.958 115.104 266.042 115.083 266.125 115C267.208 114.417 267.875 114.25 268.125 114.5C268.458 114.458 268.812 114.417 269.188 114.375C269.562 114.292 269.958 114.229 270.375 114.188C271.208 114.062 272 114 272.75 114C273.417 114.083 274.042 114.146 274.625 114.188C275.208 114.229 275.708 114.25 276.125 114.25C277.792 114.083 279.292 113.979 280.625 113.938C281.958 113.896 283.333 113.875 284.75 113.875C285.042 113.375 285.292 112.792 285.5 112.125C285.583 111.833 285.688 111.521 285.812 111.188C285.979 110.854 286.167 110.5 286.375 110.125C286.708 109.5 287.062 108.917 287.438 108.375C287.896 107.708 288.25 107.083 288.5 106.5C288.833 105.792 289.146 105.104 289.438 104.438C289.729 103.729 290.021 103.042 290.312 102.375C290.896 100.958 291.583 99.75 292.375 98.75C292.958 97.875 293.438 97.0417 293.812 96.25C294.104 95.5833 294.5 94.9167 295 94.25C295.333 93.7917 295.708 93.4167 296.125 93.125C296.583 92.7917 296.958 92.4167 297.25 92C298.375 91.4583 299.292 90.9583 300 90.5C300.708 90.3333 301.375 90.2917 302 90.375Z" fill="white"/>
<g clip-path="url(#clip0_1_13)">
<path d="M373.097 67.7834C370.903 58.9018 360.812 52.7496 351.992 55.9806C347.838 57.5025 344.267 60.5962 342.353 64.619C341.353 66.7183 340.79 68.9295 340.712 71.2582C340.664 72.702 341.158 75.0289 340.199 75.8843C337.311 78.4603 340.442 82.5566 343.704 81.9133C345.743 81.5111 347.782 81.109 349.822 80.7068L345.261 77.2285C345.456 87.0163 347.538 96.8962 354.031 104.51C359.957 111.459 369.829 115.145 378.68 112.064L374.119 108.586C375.164 117.243 378.756 125.767 385.118 131.883C388.175 134.822 392.101 137.102 396.445 137.109C400.513 137.115 404.398 135.177 406.522 131.661C407.3 130.373 407.139 128.319 405.959 127.29C396.391 118.947 396.354 104.982 392.999 93.6491C389.51 81.8632 381.891 71.7659 371.461 65.2626C367.513 62.8013 363.892 69.0401 367.824 71.492C377.793 77.708 384.105 87.4468 386.909 98.7421C389.839 110.544 391.097 123.874 400.864 132.391L400.3 128.02C399.373 129.555 397.413 130.088 395.735 129.877C392.823 129.511 390.438 127.19 388.607 125.084C384.652 120.535 382.047 114.571 381.325 108.586C381.066 106.441 379.209 104.257 376.764 105.107C370.002 107.461 363.076 104.4 358.771 98.9828C353.911 92.8682 352.618 84.8253 352.467 77.2285C352.417 74.7536 350.214 73.2951 347.906 73.7502C345.867 74.1523 343.828 74.5544 341.789 74.9566L345.294 80.9856C348.523 78.1057 347.485 74.2665 347.962 70.5079C348.317 67.716 350.159 65.1262 352.534 63.664C357.856 60.3887 364.698 63.8312 366.149 69.7013C367.261 74.2059 374.212 72.2978 373.097 67.7834Z" fill="white"/>
<path d="M357.809 106.57C357.543 109.338 357.277 112.106 357.011 114.874C356.928 115.742 357.473 116.831 358.066 117.425C358.691 118.051 359.716 118.522 360.614 118.481C361.546 118.44 362.512 118.133 363.161 117.425C363.842 116.682 364.12 115.876 364.217 114.874C364.482 112.106 364.748 109.338 365.014 106.57C365.098 105.702 364.552 104.613 363.959 104.019C363.334 103.393 362.309 102.922 361.411 102.963C360.48 103.004 359.513 103.311 358.864 104.019C358.183 104.762 357.905 105.568 357.809 106.57Z" fill="white"/>
<path d="M361.262 108.176C360.996 110.944 360.73 113.712 360.464 116.481C360.381 117.348 360.926 118.437 361.519 119.031C362.144 119.657 363.169 120.128 364.067 120.088C364.999 120.046 365.965 119.74 366.614 119.031C367.295 118.289 367.573 117.483 367.67 116.481C367.935 113.712 368.201 110.944 368.467 108.176C368.551 107.308 368.005 106.219 367.412 105.625C366.787 105 365.762 104.529 364.864 104.569C363.933 104.611 362.966 104.917 362.317 105.625C361.636 106.368 361.358 107.174 361.262 108.176Z" fill="white"/>
<path d="M330.555 120.951L366.497 121.654C371.136 121.745 371.135 114.53 366.497 114.44L330.555 113.737C325.916 113.646 325.916 120.86 330.555 120.951Z" fill="white"/>
<path d="M354.006 73.4895C358.643 73.4895 358.651 66.2751 354.006 66.2751C349.37 66.2751 349.362 73.4895 354.006 73.4895Z" fill="white"/>
</g>
<path d="M289.217 121.2L363.783 121.999C373.406 122.102 373.406 113.903 363.783 113.8L289.217 113.001C279.594 112.898 279.594 121.097 289.217 121.2Z" fill="white"/>
<defs>
<clipPath id="clip0_1_13">
<rect width="77" height="82" fill="white" transform="translate(330 56)"/>
</clipPath>
</defs>
</svg>
